<?xml version="1.0" encoding="utf-8"?>
<!-- Generator: Adobe Illustrator 18.0.0, SVG Export Plug-In . SVG Version: 6.00 Build 0)  -->
<!DOCTYPE svg PUBLIC "-//W3C//DTD SVG 1.1//EN" "http://www.w3.org/Graphics/SVG/1.1/DTD/svg11.dtd">
<svg version="1.1" id="Layer_1" xmlns="http://www.w3.org/2000/svg" xmlns:xlink="http://www.w3.org/1999/xlink" x="0px" y="0px"
	 viewBox="0 0 16 30" enable-background="new 0 0 16 30" xml:space="preserve">
<g id="Capa_24">
	<path fill="#467082" d="M8,0C3.6,0,0,3.8,0,8.5C0,8.7,0,9,0,9.2c0,0.1,0,0.2,0,0.3c0,0.1,0,0.3,0.1,0.4c0,0.1,0,0.2,0.1,0.3
		c0,0.1,0,0.1,0,0.2c0.7,3.4,3.2,6.1,5.1,10.7c0.6,1.4,1.1,2.9,1.5,4.2L8,30l1.2-4.7c0.4-1.4,0.9-2.8,1.5-4.2
		c1.9-4.6,4.4-7.3,5.1-10.7c0-0.1,0-0.1,0-0.2c0-0.1,0-0.2,0.1-0.3c0-0.1,0-0.3,0.1-0.4c0-0.1,0-0.2,0-0.3c0-0.2,0-0.5,0-0.7
		C16,3.8,12.4,0,8,0z M8,12.3c-2,0-3.6-1.7-3.6-3.8S6,4.7,8,4.7c2,0,3.6,1.7,3.6,3.8S10,12.3,8,12.3z"/>
</g>
</svg>
